<?xml version="1.0" encoding="UTF-8" standalone="no"?>
<!-- Created with Inkscape (http://www.inkscape.org/) -->

<svg
   xmlns:dc="http://purl.org/dc/elements/1.1/"
   xmlns:cc="http://creativecommons.org/ns#"
   xmlns:rdf="http://www.w3.org/1999/02/22-rdf-syntax-ns#"
   xmlns:svg="http://www.w3.org/2000/svg"
   xmlns="http://www.w3.org/2000/svg"
   xmlns:sodipodi="http://sodipodi.sourceforge.net/DTD/sodipodi-0.dtd"
   xmlns:inkscape="http://www.inkscape.org/namespaces/inkscape"
   width="744.09448819"
   height="1052.3622047"
   id="svg2"
   version="1.1"
   inkscape:version="0.48.3.1 r9886"
   sodipodi:docname="icons.svg">
  <sodipodi:namedview
     id="base"
     pagecolor="#ffffff"
     bordercolor="#666666"
     borderopacity="1.0"
     inkscape:pageopacity="0.0"
     inkscape:pageshadow="2"
     inkscape:zoom="0.7071068"
     inkscape:cx="423.94761"
     inkscape:cy="561.08953"
     inkscape:document-units="px"
     inkscape:current-layer="layer1"
     showgrid="false"
     showguides="true"
     inkscape:guide-bbox="true"
     inkscape:window-width="1920"
     inkscape:window-height="1030"
     inkscape:window-x="0"
     inkscape:window-y="0"
     inkscape:window-maximized="1" />
  <defs
     id="defs4">
    <filter
       id="filter3852"
       style="color-interpolation-filters:sRGB;"
       inkscape:label="Drop Shadow">
      <feFlood
         id="feFlood3854"
         flood-opacity="0.75"
         flood-color="rgb(0,0,0)"
         result="flood" />
      <feComposite
         id="feComposite3856"
         in2="SourceGraphic"
         in="flood"
         operator="in"
         result="composite1" />
      <feGaussianBlur
         id="feGaussianBlur3858"
         in="composite"
         stdDeviation="2"
         result="blur" />
      <feOffset
         id="feOffset3860"
         dx="0.1"
         dy="0.1"
         result="offset" />
      <feComposite
         id="feComposite3862"
         in2="offset"
         in="SourceGraphic"
         operator="over"
         result="composite2" />
    </filter>
  </defs>
  <metadata
     id="metadata7">
    <rdf:RDF>
      <cc:Work
         rdf:about="">
        <dc:format>image/svg+xml</dc:format>
        <dc:type
           rdf:resource="http://purl.org/dc/dcmitype/StillImage" />
        <dc:title />
      </cc:Work>
    </rdf:RDF>
  </metadata>
  <g
     id="layer1"
     inkscape:groupmode="layer"
     inkscape:label="Layer 1">
    <rect
       style="fill:#000000;fill-opacity:0.86486487;stroke:none"
       id="rect3776"
       width="589.01996"
       height="478.71127"
       x="251.0229"
       y="295.05084"
       ry="2.0357141"
       rx="2.0357141" />
    <g
       id="g2997"
       transform="translate(-26.82159,27.216138)"
       style="fill:#ffffff;fill-opacity:0.86486489000000000;filter:url(#filter3852)">
      <path
         style="fill:#ffffff;fill-opacity:0.86486489"
         d="m 387.04033,363.42515 -1.59375,0.6875 9.125,7.4375 -9.78125,0 c -2.21026,0 -3.96875,1.78974 -3.96875,4 l 0,18 c 0,2.21026 1.75849,4 3.96875,4 l 28.03125,0 c 2.21026,0 4,-1.78974 4,-4 l 0,-18 c 0,-2.21026 -1.78974,-4 -4,-4 l -4.40625,0 6.71875,-5.78125 -0.875,-0.875 -8.21875,6.65625 -8.84375,0 -10.15625,-8.125 z m -0.1875,10.625 14.875,0 c 2.25045,0 4.0625,1.81205 4.0625,4.0625 l 0,12.875 c 0,2.25045 -1.81205,4.0625 -4.0625,4.0625 l -14.875,0 c -2.25045,0 -4.0625,-1.81205 -4.0625,-4.0625 l 0,-12.875 c 0,-2.25045 1.81205,-4.0625 4.0625,-4.0625 z m 21.59375,0.34375 5.3125,0 c 0.66455,0 1.1875,0.5542 1.1875,1.21875 0,0.66455 -0.52295,1.1875 -1.1875,1.1875 l -5.3125,0 c -0.66455,0 -1.21875,-0.52295 -1.21875,-1.1875 0,-0.66455 0.5542,-1.21875 1.21875,-1.21875 z m 0,3.3125 5.3125,0 c 0.66455,0 1.1875,0.5542 1.1875,1.21875 0,0.66455 -0.52295,1.1875 -1.1875,1.1875 l -5.3125,0 c -0.66455,0 -1.21875,-0.52295 -1.21875,-1.1875 0,-0.66455 0.5542,-1.21875 1.21875,-1.21875 z m 0,3.3125 5.3125,0 c 0.66455,0 1.1875,0.52295 1.1875,1.1875 0,0.66455 -0.52295,1.21875 -1.1875,1.21875 l -5.3125,0 c -0.66455,0 -1.21875,-0.5542 -1.21875,-1.21875 0,-0.66455 0.5542,-1.1875 1.21875,-1.1875 z m 0,3.3125 5.3125,0 c 0.66455,0 1.1875,0.52295 1.1875,1.1875 0,0.66455 -0.52295,1.1875 -1.1875,1.1875 l -5.3125,0 c -0.66455,0 -1.21875,-0.52295 -1.21875,-1.1875 0,-0.66455 0.5542,-1.1875 1.21875,-1.1875 z m 2.625,4.71875 c 1.70123,0 3.0625,1.36127 3.0625,3.0625 0,1.70123 -1.36127,3.09375 -3.0625,3.09375 -1.70123,0 -3.09375,-1.39252 -3.09375,-3.09375 0,-1.70123 1.39252,-3.0625 3.09375,-3.0625 z m 0,1.15625 c -1.05617,0 -1.90625,0.85008 -1.90625,1.90625 0,1.05617 0.85008,1.9375 1.90625,1.9375 1.05617,0 1.90625,-0.88133 1.90625,-1.9375 0,-1.05617 -0.85008,-1.90625 -1.90625,-1.90625 z"
         id="rect3000"
         inkscape:connector-curvature="0" />
      <path
         style="fill:#ffffff;fill-opacity:0.86486489;stroke:#ffffff;stroke-width:0;stroke-miterlimit:4;stroke-opacity:1;stroke-dasharray:none"
         d="m 384.50369,422.60542 0,34.52982 28.63579,0 0,-34.52982 -28.63579,0 z m 8.90393,1.39787 10.85029,0 c 1.58146,0 2.84121,1.38094 2.84121,3.11454 l 0,9.09842 c 0,1.73361 -1.25975,3.13908 -2.84121,3.13908 l -10.85029,0 c -1.58145,0 -2.8412,-1.40547 -2.8412,-3.13908 l 0,-9.09842 c 0,-1.7336 1.25975,-3.11454 2.8412,-3.11454 z m -6.57727,0.26976 1.16333,0 c 0.60095,0 1.09621,0.51839 1.09621,1.17715 0,0.65878 -0.49526,1.20168 -1.09621,1.20168 l -1.16333,0 c -0.60096,0 -1.09622,-0.5429 -1.09622,-1.20168 0,-0.65876 0.49526,-1.17715 1.09622,-1.17715 z m 22.86388,0 1.16333,0 c 0.60096,0 1.09622,0.51839 1.09622,1.17715 0,0.65878 -0.49526,1.20168 -1.09622,1.20168 l -1.16333,0 c -0.60095,0 -1.09621,-0.5429 -1.09621,-1.20168 0,-0.65876 0.49526,-1.17715 1.09621,-1.17715 z m -22.86388,3.21265 1.16333,0 c 0.60095,0 1.09621,0.51838 1.09621,1.17715 0,0.65876 -0.49526,1.20168 -1.09621,1.20168 l -1.16333,0 c -0.60096,0 -1.09622,-0.54292 -1.09622,-1.20168 0,-0.65877 0.49526,-1.17715 1.09622,-1.17715 z m 22.86388,0 1.16333,0 c 0.60096,0 1.09622,0.51838 1.09622,1.17715 0,0.65876 -0.49526,1.20168 -1.09622,1.20168 l -1.16333,0 c -0.60095,0 -1.09621,-0.54292 -1.09621,-1.20168 0,-0.65877 0.49526,-1.17715 1.09621,-1.17715 z m -22.86388,3.21265 1.16333,0 c 0.60095,0 1.09621,0.54291 1.09621,1.20167 0,0.65876 -0.49526,1.17715 -1.09621,1.17715 l -1.16333,0 c -0.60096,0 -1.09622,-0.51839 -1.09622,-1.17715 0,-0.65876 0.49526,-1.20167 1.09622,-1.20167 z m 22.86388,0 1.16333,0 c 0.60096,0 1.09622,0.54291 1.09622,1.20167 0,0.65876 -0.49526,1.17715 -1.09622,1.17715 l -1.16333,0 c -0.60095,0 -1.09621,-0.51839 -1.09621,-1.17715 0,-0.65876 0.49526,-1.20167 1.09621,-1.20167 z m -22.86388,3.21264 1.16333,0 c 0.60095,0 1.09621,0.54291 1.09621,1.20168 0,0.65876 -0.49526,1.17716 -1.09621,1.17716 l -1.16333,0 c -0.60096,0 -1.09622,-0.5184 -1.09622,-1.17716 0,-0.65877 0.49526,-1.20168 1.09622,-1.20168 z m 22.86388,0 1.16333,0 c 0.60096,0 1.09622,0.54291 1.09622,1.20168 0,0.65876 -0.49526,1.17716 -1.09622,1.17716 l -1.16333,0 c -0.60095,0 -1.09621,-0.5184 -1.09621,-1.17716 0,-0.65877 0.49526,-1.20168 1.09621,-1.20168 z m -22.86388,3.21265 1.16333,0 c 0.60095,0 1.09621,0.54291 1.09621,1.20167 0,0.65876 -0.49526,1.17715 -1.09621,1.17715 l -1.16333,0 c -0.60096,0 -1.09622,-0.51839 -1.09622,-1.17715 0,-0.65876 0.49526,-1.20167 1.09622,-1.20167 z m 22.86388,0 1.16333,0 c 0.60096,0 1.09622,0.54291 1.09622,1.20167 0,0.65876 -0.49526,1.17715 -1.09622,1.17715 l -1.16333,0 c -0.60095,0 -1.09621,-0.51839 -1.09621,-1.17715 0,-0.65876 0.49526,-1.20167 1.09621,-1.20167 z m -22.86388,3.23716 1.16333,0 c 0.60095,0 1.09621,0.5184 1.09621,1.17716 0,0.65877 -0.49526,1.20168 -1.09621,1.20168 l -1.16333,0 c -0.60096,0 -1.09622,-0.54291 -1.09622,-1.20168 0,-0.65876 0.49526,-1.17716 1.09622,-1.17716 z m 22.86388,0 1.16333,0 c 0.60096,0 1.09622,0.5184 1.09622,1.17716 0,0.65877 -0.49526,1.20168 -1.09622,1.20168 l -1.16333,0 c -0.60095,0 -1.09621,-0.54291 -1.09621,-1.20168 0,-0.65876 0.49526,-1.17716 1.09621,-1.17716 z m -16.28661,0.17167 10.85029,0 c 1.58146,0 2.84121,1.40546 2.84121,3.13908 l 0,9.09841 c 0,1.73361 -1.25975,3.13907 -2.84121,3.13907 l -10.85029,0 c -1.58145,0 -2.8412,-1.40546 -2.8412,-3.13907 l 0,-9.09841 c 0,-1.73362 1.25975,-3.13908 2.8412,-3.13908 z m -6.57727,3.04098 1.16333,0 c 0.60095,0 1.09621,0.5184 1.09621,1.17715 0,0.65877 -0.49526,1.20168 -1.09621,1.20168 l -1.16333,0 c -0.60096,0 -1.09622,-0.54291 -1.09622,-1.20168 0,-0.65875 0.49526,-1.17715 1.09622,-1.17715 z m 22.86388,0 1.16333,0 c 0.60096,0 1.09622,0.5184 1.09622,1.17715 0,0.65877 -0.49526,1.20168 -1.09622,1.20168 l -1.16333,0 c -0.60095,0 -1.09621,-0.54291 -1.09621,-1.20168 0,-0.65875 0.49526,-1.17715 1.09621,-1.17715 z m -22.86388,3.21265 1.16333,0 c 0.60095,0 1.09621,0.54291 1.09621,1.20167 0,0.65878 -0.49526,1.17716 -1.09621,1.17716 l -1.16333,0 c -0.60096,0 -1.09622,-0.51838 -1.09622,-1.17716 0,-0.65876 0.49526,-1.20167 1.09622,-1.20167 z m 22.86388,0 1.16333,0 c 0.60096,0 1.09622,0.54291 1.09622,1.20167 0,0.65878 -0.49526,1.17716 -1.09622,1.17716 l -1.16333,0 c -0.60095,0 -1.09621,-0.51838 -1.09621,-1.17716 0,-0.65876 0.49526,-1.20167 1.09621,-1.20167 z m -22.86388,3.21265 1.16333,0 c 0.60095,0 1.09621,0.5429 1.09621,1.20168 0,0.65876 -0.49526,1.17714 -1.09621,1.17714 l -1.16333,0 c -0.60096,0 -1.09622,-0.51838 -1.09622,-1.17714 0,-0.65878 0.49526,-1.20168 1.09622,-1.20168 z m 22.86388,0 1.16333,0 c 0.60096,0 1.09622,0.5429 1.09622,1.20168 0,0.65876 -0.49526,1.17714 -1.09622,1.17714 l -1.16333,0 c -0.60095,0 -1.09621,-0.51838 -1.09621,-1.17714 0,-0.65878 0.49526,-1.20168 1.09621,-1.20168 z m -22.86388,3.23717 1.16333,0 c 0.60095,0 1.09621,0.51838 1.09621,1.17715 0,0.65877 -0.49526,1.17716 -1.09621,1.17716 l -1.16333,0 c -0.60096,0 -1.09622,-0.51839 -1.09622,-1.17716 0,-0.65877 0.49526,-1.17715 1.09622,-1.17715 z m 22.86388,0 1.16333,0 c 0.60096,0 1.09622,0.51838 1.09622,1.17715 0,0.65877 -0.49526,1.17716 -1.09622,1.17716 l -1.16333,0 c -0.60095,0 -1.09621,-0.51839 -1.09621,-1.17716 0,-0.65877 0.49526,-1.17715 1.09621,-1.17715 z"
         id="rect3838"
         inkscape:connector-curvature="0" />
      <path
         style="fill:#ffffff;fill-opacity:0.86486489;stroke:#ffffff;stroke-width:0;stroke-miterlimit:4;stroke-opacity:1;stroke-dasharray:none"
         d="m 411.89592,482.03586 c -6.30254,1.09343 -12.79904,1.9234 -18.24144,2.87666 -0.8296,0.10165 -1.4875,0.8099 -1.4875,1.73453 l 0,20.30676 c -0.74356,-0.30214 -1.55134,-0.46537 -2.42698,-0.46537 -3.18843,0 -5.79342,2.23064 -5.79342,4.99209 0,2.76143 2.60499,4.99207 5.79342,4.99207 3.18842,0 5.75428,-2.23064 5.75428,-4.99207 0.007,-6.26108 10e-4,-13.64364 0,-19.03759 l 15.03158,-2.41143 0,15.18776 c -0.7848,-0.34574 -1.68187,-0.54997 -2.6227,-0.54997 -3.18842,0 -5.75428,2.23064 -5.75428,4.99207 0,2.76144 2.56586,4.99209 5.75428,4.99209 3.18843,0 5.79342,-2.23065 5.79342,-4.99209 -0.17994,-8.56728 -0.0783,-17.3084 -0.0783,-25.93342 0,-0.92333 -0.71145,-1.69222 -1.56579,-1.69222 -0.0526,0 -0.10535,-0.005 -0.15658,0 z"
         id="path4039"
         inkscape:connector-curvature="0"
         sodipodi:nodetypes="ccscsssccccsssccscc" />
      <path
         style="fill:#ffffff;fill-opacity:0.86486489;stroke:none"
         d="m 381.46221,540.57323 -0.1875,5.78125 -5.0625,0.4375 2.59375,29.90625 39.84375,-3.5 -0.0625,-0.5625 -9.59375,-0.34375 -28.96875,2.53125 -2.3125,-26.40625 3.5,-0.3125 -0.78125,22.4375 39.96875,1.40625 1.03125,-29.96875 -39.96875,-1.40625 z m 1.3125,1.78125 37.21875,1.3125 -0.53125,15.375 c -0.54906,-0.64816 -1.31053,-1.42718 -2.34375,-2.25 -2.55553,-2.03512 -4.31992,1.79365 -7.78125,0.625 -3.46132,-1.16866 -4.24913,-3.88172 -12.3125,1.375 -8.06337,5.25671 -14.71875,5.75 -14.71875,5.75 l -0.34375,1 0.8125,-23.1875 z m 7.6875,4.15625 c -1.96631,-0.0687 -3.61883,1.47119 -3.6875,3.4375 -0.0687,1.96631 1.47119,3.61883 3.4375,3.6875 1.96631,0.0687 3.61883,-1.47119 3.6875,-3.4375 0.0687,-1.96631 -1.47119,-3.61883 -3.4375,-3.6875 z"
         id="rect4069"
         inkscape:connector-curvature="0" />
      <g
         style="fill:#ffffff;fill-opacity:0.86486489"
         transform="translate(193.31381,-58.228963)"
         id="g5101">
        <path
           style="fill:#ffffff;fill-opacity:0.86486489;stroke:none"
           d="m 194.97603,655.39887 -0.42891,1.07832 -0.12325,0.77764 0.0246,0.29032 -1.10926,0.15034 -0.0493,-0.28513 -0.30566,-0.71543 -0.68035,-0.9228 -0.69513,0.19182 -0.1479,1.16127 0.0739,0.78282 0.0937,0.27477 -1.03037,0.44585 -0.11832,-0.2644 -0.47328,-0.60656 -0.88741,-0.71024 -0.62118,0.37845 0.14297,1.16127 0.26129,0.73617 0.15776,0.23847 -0.88247,0.71542 -0.18241,-0.22292 -0.6064,-0.45621 -1.03037,-0.44585 -0.5078,0.53398 0.42399,1.08351 0.43384,0.63766 0.21199,0.18664 -0.68034,0.93316 -0.22678,-0.1659 -0.70007,-0.27994 -1.09939,-0.14516 -0.35989,0.65321 0.67048,0.92798 0.58174,0.49769 0.2465,0.12961 -0.42398,1.08351 -0.26129,-0.0985 -0.74443,-0.0778 -1.0994,0.15553 -0.18734,0.73098 0.87755,0.71542 0.68034,0.32143 0.27608,0.0518 -0.1479,1.16644 -0.27608,-0.026 -0.73951,0.12962 -1.02544,0.451 0,0.75172 1.02544,0.45105 0.73951,0.12961 0.27608,-0.026 0.1479,1.16649 -0.27608,0.0518 -0.68034,0.32663 -0.87755,0.71024 0.18734,0.73098 1.0994,0.15552 0.74443,-0.0778 0.26129,-0.0985 0.42398,1.08868 -0.2465,0.12445 -0.58174,0.49765 -0.67048,0.92799 0.35989,0.65322 1.09939,-0.14516 0.70007,-0.27993 0.22678,-0.1659 0.68034,0.93316 -0.21199,0.18663 -0.43384,0.63764 -0.42399,1.08352 0.5078,0.53397 1.03037,-0.44063 0.6064,-0.46141 0.18241,-0.22292 0.88247,0.7154 -0.15776,0.2385 -0.26129,0.73614 -0.14297,1.16128 0.62118,0.37845 0.88741,-0.71024 0.47328,-0.60653 0.11832,-0.2644 1.03037,0.451 -0.0937,0.27477 -0.0739,0.77763 0.1479,1.16128 0.69513,0.19701 0.68035,-0.92799 0.30566,-0.7154 0.0493,-0.28514 1.10926,0.15032 -0.0246,0.29035 0.12325,0.77763 0.42891,1.07831 0.71979,0 0.42891,-1.07831 0.11832,-0.77763 -0.0197,-0.29035 1.10432,-0.15032 0.0493,0.28514 0.31059,0.7154 0.68034,0.92799 0.69021,-0.19701 0.15283,-1.16128 -0.0739,-0.77763 -0.0937,-0.27477 1.03037,-0.451 0.11833,0.2644 0.47328,0.60653 0.88247,0.71024 0.62611,-0.37845 -0.14297,-1.16128 -0.26622,-0.73614 -0.15776,-0.2385 0.88741,-0.7154 0.18241,0.22292 0.60639,0.46141 1.02544,0.44063 0.50779,-0.53397 -0.41904,-1.08352 -0.43878,-0.63764 -0.21199,-0.18663 0.68035,-0.93316 0.23171,0.1659 0.69513,0.27993 1.10432,0.14516 0.35989,-0.65322 -0.67541,-0.92799 -0.57681,-0.49765 -0.25143,-0.12445 0.42891,-1.08868 0.26129,0.0985 0.74443,0.0778 1.0994,-0.15552 0.18734,-0.73098 -0.88247,-0.71024 -0.68035,-0.32663 -0.27115,-0.0518 0.14297,-1.16649 0.28102,0.026 0.73457,-0.12961 1.02544,-0.45105 0,-0.75172 -1.02544,-0.451 -0.73457,-0.12962 -0.28102,0.026 -0.14297,-1.16644 0.27115,-0.0518 0.68035,-0.32143 0.88247,-0.71542 -0.18734,-0.73098 -1.0994,-0.15553 -0.74443,0.0778 -0.26129,0.0985 -0.42891,-1.08351 0.25143,-0.12961 0.57681,-0.49769 0.67541,-0.92798 -0.35989,-0.65321 -1.10432,0.14516 -0.69513,0.27994 -0.23171,0.1659 -0.68035,-0.93316 0.21199,-0.18664 0.43878,-0.63766 0.41904,-1.08351 -0.50779,-0.53398 -1.02544,0.44585 -0.60639,0.45621 -0.18241,0.22292 -0.88741,-0.71542 0.15776,-0.23847 0.26622,-0.73617 0.14297,-1.16127 -0.62611,-0.37845 -0.88247,0.71024 -0.47328,0.60656 -0.11833,0.2644 -1.03037,-0.44585 0.0937,-0.27477 0.0739,-0.78282 -0.15283,-1.16127 -0.69021,-0.19182 -0.68034,0.9228 -0.31059,0.71543 -0.0493,0.28513 -1.10432,-0.15034 0.0197,-0.29032 -0.11832,-0.77764 -0.42891,-1.07832 -0.71979,0 z m 0.3599,4.23035 c 4.98812,0 9.0318,4.25219 9.0318,9.49756 0,5.24532 -4.04368,9.49753 -9.0318,9.49753 -4.98813,0 -9.03181,-4.25221 -9.03181,-9.49753 0,-5.24537 4.04368,-9.49756 9.03181,-9.49756 z"
           id="path5062"
           inkscape:connector-curvature="0" />
        <path
           style="fill:#ffffff;fill-opacity:0.86486489;stroke:none"
           d="m 215.3247,669.64564 -0.42891,1.07835 -0.12325,0.77763 0.0246,0.29031 -1.10926,0.15036 -0.0493,-0.28515 -0.30566,-0.71544 -0.68035,-0.92279 -0.69513,0.19181 -0.1479,1.16128 0.0739,0.78284 0.0937,0.27477 -1.03038,0.44583 -0.11832,-0.2644 -0.47328,-0.60657 -0.8874,-0.71023 -0.62118,0.37844 0.14297,1.16128 0.26129,0.73619 0.15776,0.23845 -0.88248,0.71544 -0.18241,-0.22291 -0.60639,-0.45625 -1.03037,-0.44584 -0.50779,0.53397 0.42398,1.08352 0.43384,0.63768 0.21199,0.1866 -0.68035,0.9332 -0.22678,-0.1659 -0.70006,-0.27998 -1.09939,-0.14516 -0.35989,0.65322 0.67048,0.92799 0.58174,0.49769 0.2465,0.12962 -0.42398,1.08348 -0.26129,-0.0985 -0.74444,-0.0778 -1.09939,0.15553 -0.18734,0.73098 0.87754,0.7154 0.68034,0.32142 0.27609,0.0519 -0.1479,1.16644 -0.27608,-0.026 -0.73951,0.12957 -1.02544,0.45105 0,0.75172 1.02544,0.45104 0.73951,0.12958 0.27608,-0.026 0.1479,1.16645 -0.27609,0.0518 -0.68034,0.32663 -0.87754,0.71024 0.18734,0.73098 1.09939,0.15553 0.74444,-0.0778 0.26129,-0.0985 0.42398,1.08868 -0.2465,0.12441 -0.58174,0.49769 -0.67048,0.928 0.35989,0.65321 1.09939,-0.14515 0.70006,-0.27998 0.22678,-0.1659 0.68035,0.9332 -0.21199,0.18664 -0.43384,0.63764 -0.42398,1.08351 0.50779,0.53397 1.03037,-0.44067 0.60639,-0.46137 0.18241,-0.22292 0.88248,0.71541 -0.15776,0.23849 -0.26129,0.73615 -0.14297,1.16128 0.62118,0.37844 0.8874,-0.71024 0.47328,-0.60657 0.11832,-0.2644 1.03038,0.45104 -0.0937,0.27478 -0.0739,0.77763 0.1479,1.16128 0.69513,0.19701 0.68035,-0.92799 0.30566,-0.71545 0.0493,-0.2851 1.10926,0.15032 -0.0246,0.29031 0.12325,0.77767 0.42891,1.07831 0.71978,0 0.42892,-1.07831 0.11832,-0.77767 -0.0197,-0.29031 1.10433,-0.15032 0.0493,0.2851 0.31059,0.71545 0.68034,0.92799 0.69021,-0.19701 0.15283,-1.16128 -0.0739,-0.77763 -0.0937,-0.27478 1.03037,-0.45104 0.11832,0.2644 0.47329,0.60657 0.88247,0.71024 0.62611,-0.37844 -0.14297,-1.16128 -0.26622,-0.73615 -0.15776,-0.23849 0.8874,-0.71541 0.18241,0.22292 0.6064,0.46137 1.02544,0.44067 0.50779,-0.53397 -0.41905,-1.08351 -0.43877,-0.63764 -0.21199,-0.18664 0.68034,-0.9332 0.23171,0.1659 0.69513,0.27998 1.10433,0.14515 0.35989,-0.65321 -0.67541,-0.928 -0.57681,-0.49769 -0.25143,-0.12441 0.42891,-1.08868 0.26129,0.0985 0.74443,0.0778 1.0994,-0.15553 0.18734,-0.73098 -0.88248,-0.71024 -0.68034,-0.32663 -0.27115,-0.0518 0.14297,-1.16645 0.28101,0.026 0.73458,-0.12958 1.02544,-0.45104 0,-0.75172 -1.02544,-0.45105 -0.73458,-0.12957 -0.28101,0.026 -0.14297,-1.16644 0.27115,-0.0519 0.68034,-0.32142 0.88248,-0.7154 -0.18734,-0.73098 -1.0994,-0.15553 -0.74443,0.0778 -0.26129,0.0985 -0.42891,-1.08348 0.25143,-0.12962 0.57681,-0.49769 0.67541,-0.92799 -0.35989,-0.65322 -1.10433,0.14516 -0.69513,0.27998 -0.23171,0.1659 -0.68034,-0.9332 0.21199,-0.1866 0.43877,-0.63768 0.41905,-1.08352 -0.50779,-0.53397 -1.02544,0.44584 -0.6064,0.45625 -0.18241,0.22291 -0.8874,-0.71544 0.15776,-0.23845 0.26622,-0.73619 0.14297,-1.16128 -0.62611,-0.37844 -0.88247,0.71023 -0.47329,0.60657 -0.11832,0.2644 -1.03037,-0.44583 0.0937,-0.27477 0.0739,-0.78284 -0.15283,-1.16128 -0.69021,-0.19181 -0.68034,0.92279 -0.31059,0.71544 -0.0493,0.28515 -1.10433,-0.15036 0.0197,-0.29031 -0.11832,-0.77763 -0.42892,-1.07835 -0.71978,0 z m 0.35989,4.23035 c 4.98813,0 9.03181,4.25221 9.03181,9.49754 0,5.24537 -4.04368,9.49753 -9.03181,9.49753 -4.98812,0 -9.0318,-4.25216 -9.0318,-9.49753 0,-5.24533 4.04368,-9.49754 9.0318,-9.49754 z"
           id="path5062-7"
           inkscape:connector-curvature="0" />
      </g>
    </g>
  </g>
</svg>
